<?xml version="1.0" encoding="utf-8"?>
<!-- Generator: Adobe Illustrator 27.1.1, SVG Export Plug-In . SVG Version: 6.00 Build 0)  -->
<svg version="1.1" xmlns="http://www.w3.org/2000/svg" xmlns:xlink="http://www.w3.org/1999/xlink" x="0px" y="0px"
	 viewBox="0 0 1280 1280" style="enable-background:new 0 0 1280 1280;" xml:space="preserve">
<style type="text/css">
	.st0{fill:#B3B3B3;}
	.st1{display:none;}
	.st2{display:inline;fill:#F2F2F2;}
	.st3{display:inline;fill:#808080;}
	.st4{fill:#F2F2F2;}
</style>
<g id="yuan">
	<circle class="st0" cx="640" cy="640" r="587"/>
</g>
<g id="wai" class="st1">
	<polyline class="st2" points="640,109 744.37,213.37 744.37,538.38 1068.92,538.38 1171,640 1068.92,640 640,640 	"/>
	<polygon class="st2" points="109,640 640,109 640,640 1171,640 640,1171 	"/>
	<polygon class="st3" points="211.08,640 640,213.37 640,640 1068.92,640 640,1066.63 	"/>
	<path class="st2" d="M453.12,881.58l-54.12-54.12l160.65-160.65c14.3-14.3,37.49-14.3,51.79,0l2.56,2.56
		c14.32,14.32,14.3,37.53-0.04,51.83L453.12,881.58z"/>
</g>
<g id="miaobian">
	<path class="st4" d="M654.62,122.75l50.43,47.32c4.03,3.78,6.31,9.06,6.31,14.58V284v287.38H988.5h104.25
		c5.29,0,10.36,2.09,14.1,5.82l49.43,49.16c7.85,7.8,7.86,20.5,0.04,28.32l-502.18,502.18c-7.81,7.81-20.47,7.81-28.28,0.01
		l-502.7-502.22c-7.82-7.81-7.82-20.49,0-28.3L626.8,123.19C634.44,115.56,646.75,115.36,654.62,122.75z"/>
	<path class="st0" d="M605.71,247.55l-372.8,371.68c-11.77,11.73-11.76,30.8,0.02,42.51l166.05,165.17l158.67-158.67
		c15.62-15.62,40.95-15.62,56.57,0l0,0c14.23,14.23,14.23,37.3,0,51.53L453,881l187.12,187.12l393.44-393.44
		c12.6-12.6,3.68-34.14-14.14-34.14H665.46c-13.79,0-24.98-11.17-25-24.96l-0.62-353.9C639.8,243.89,618.31,234.99,605.71,247.55z"
		/>
</g>
</svg>
